<?xml version="1.0" standalone="no"?>
<!DOCTYPE svg PUBLIC "-//W3C//DTD SVG 20010904//EN"
 "http://www.w3.org/TR/2001/REC-SVG-20010904/DTD/svg10.dtd">
<svg version="1.0" xmlns="http://www.w3.org/2000/svg"
 width="700.000000pt" height="700.000000pt" viewBox="0 0 700.000000 700.000000"
 preserveAspectRatio="xMidYMid meet">
<metadata>
Created by potrace 1.11, written by Peter Selinger 2001-2013
</metadata>
<g transform="translate(0.000000,700.000000) scale(0.100000,-0.100000)"
fill="#000000" stroke="none">
<path d="M363 6782 l-143 -3 0 -62 c-3 -705 0 -6491 3 -6493 5 -5 6549 -5
6554 0 5 4 4 6548 -1 6553 -4 4 -6200 9 -6413 5z m1470 -221 l27 -1 0 -710 0
-710 -710 0 c-390 0 -710 3 -711 8 -1 10 -1 1406 0 1412 1 4 1263 5 1394 1z
m1525 0 l32 -1 0 -710 0 -710 -655 0 -655 0 -1 28 c0 37 0 1284 0 1347 l1 50
623 -2 c342 -1 637 -2 655 -2z m1558 -4 c4 -4 8 -1114 5 -1374 l-1 -43 -655 0
-655 0 0 709 c0 656 1 710 17 713 30 6 1283 1 1289 -5z m1645 -12 c1 -25 1
-1352 0 -1382 l-1 -23 -710 0 -710 0 0 709 0 710 23 3 c12 2 331 3 709 3 681
0 688 0 689 -20z m-4718 -1625 c16 0 17 -38 17 -655 l0 -655 -710 0 c-390 0
-710 3 -711 8 -1 10 -1 1262 0 1284 1 13 12 18 49 20 36 2 1267 1 1355 -2z
m1495 1 l52 -1 0 -655 0 -655 -655 0 -655 0 -1 23 c0 29 0 1259 0 1274 1 6 13
13 29 15 21 2 962 1 1230 -1z m1579 -4 c4 -4 7 -1013 4 -1264 l-1 -43 -655 0
-655 0 0 654 c0 427 3 655 10 658 16 5 1291 0 1297 -5z m1640 -1 c5 -4 8
-1198 4 -1288 -1 -17 -42 -18 -711 -18 l-710 0 0 658 0 657 706 -2 c388 0 708
-4 711 -7z m-4697 -2181 l0 -655 -37 -1 c-232 -3 -1376 1 -1380 5 -5 4 -8
1109 -4 1274 l1 32 710 0 710 0 0 -655z m1530 0 l0 -655 -62 -1 c-313 -3
-1241 0 -1245 4 -3 4 -7 1182 -4 1290 1 16 39 17 656 17 l655 0 0 -655z m1532
2 c0 -357 -3 -651 -5 -654 -4 -3 -1184 -7 -1289 -4 -17 1 -18 39 -18 656 l0
655 656 -2 656 -3 0 -648z m1639 636 c4 -95 0 -1285 -4 -1289 -4 -4 -1260 -8
-1399 -4 -17 0 -18 38 -18 655 l0 655 710 0 c669 0 710 -1 711 -17z m-4701
-2223 l0 -710 -22 -1 c-126 -4 -1390 0 -1395 4 -4 5 -8 1364 -4 1410 1 4 321
7 711 7 l710 0 0 -710z m1530 0 l0 -710 -32 -1 c-162 -4 -1270 -1 -1274 4 -4
4 -8 1208 -5 1390 l1 27 655 0 655 0 0 -710z m1531 688 c0 -31 0 -1290 0
-1353 l-1 -50 -628 2 c-345 1 -639 2 -654 2 l-28 1 0 710 0 710 655 0 655 0 1
-22z m1640 10 c0 -7 1 -327 2 -711 2 -691 2 -697 -18 -698 -24 -1 -1350 -1
-1382 0 l-23 1 0 710 0 710 710 0 c561 0 710 -3 711 -12z"/>
<path d="M881 6230 c-9 -7 -9 -203 1 -210 6 -5 171 -5 203 -1 14 1 14 211 0
212 -32 4 -198 3 -204 -1z"/>
<path d="M1206 5901 c-2 -3 -3 -52 -4 -108 0 -98 1 -103 22 -104 11 0 60 -1
108 -2 l88 -2 1 53 c1 66 1 116 0 145 -1 23 -3 23 -106 23 -58 1 -107 -2 -109
-5z"/>
<path d="M2654 6225 c-208 -38 -355 -218 -356 -435 -1 -198 150 -379 350 -421
203 -42 416 74 494 271 18 44 22 76 22 161 1 102 0 108 -36 180 -20 40 -52 90
-71 110 -68 72 -163 123 -247 135 -77 10 -97 10 -156 -1z m171 -231 c76 -36
125 -113 125 -196 -1 -189 -213 -286 -357 -163 -100 85 -100 238 0 328 58 52
160 65 232 31z"/>
<path d="M5735 6228 c-228 -33 -390 -233 -372 -462 24 -314 353 -499 634 -355
234 119 308 417 157 636 -93 136 -254 205 -419 181z m163 -240 c102 -48 145
-183 92 -287 -98 -193 -385 -141 -407 73 -12 111 57 210 163 235 49 11 97 5
152 -21z"/>
<path d="M1050 4699 c-195 -21 -343 -157 -385 -354 -7 -37 -12 -72 -10 -78 2
-7 6 -34 8 -62 16 -161 147 -313 313 -358 120 -33 253 -14 352 51 287 188 263
609 -43 757 -84 41 -148 53 -235 44z m149 -243 c95 -50 138 -181 92 -281 -68
-147 -271 -170 -367 -42 -29 38 -35 55 -49 125 -12 63 57 177 124 204 67 28
139 25 200 -6z"/>
<path d="M4183 4693 c-138 -28 -247 -113 -311 -242 -33 -66 -37 -82 -39 -165
-4 -145 38 -248 135 -337 97 -89 181 -120 311 -115 105 4 116 7 191 47 104 55
189 163 220 278 27 102 4 248 -54 339 -95 152 -279 231 -453 195z m178 -234
c106 -54 152 -185 100 -287 -106 -206 -410 -136 -411 96 0 158 170 263 311
191z"/>
<path d="M2596 3149 c-113 -39 -198 -115 -252 -224 -19 -38 -37 -86 -39 -105
-29 -200 44 -358 211 -463 109 -68 275 -76 397 -20 275 129 343 479 136 698
-35 37 -77 68 -126 92 -66 33 -82 36 -171 39 -78 3 -108 0 -156 -17z m222
-215 c112 -46 166 -188 112 -294 -105 -206 -411 -135 -411 95 0 154 157 259
299 199z"/>
<path d="M5700 3161 c-136 -29 -266 -145 -316 -281 -37 -103 -26 -248 25 -349
50 -96 170 -192 279 -221 216 -57 456 75 523 289 67 214 -25 428 -227 528 -68
33 -85 37 -162 39 -48 2 -103 -1 -122 -5z m201 -236 c123 -64 151 -235 55
-337 -83 -88 -221 -93 -308 -12 -183 172 29 464 253 349z"/>
<path d="M968 1621 c-70 -23 -131 -59 -180 -106 -42 -40 -105 -142 -113 -183
-28 -131 -20 -222 26 -317 115 -239 418 -322 636 -173 264 180 254 568 -18
736 -97 59 -246 77 -351 43z m242 -235 c115 -76 133 -238 38 -335 -82 -84
-222 -85 -306 -3 -109 106 -77 287 63 354 57 27 151 20 205 -16z"/>
<path d="M4128 1616 c-119 -40 -208 -120 -261 -234 -26 -58 -31 -80 -33 -162
-2 -73 2 -109 18 -154 103 -309 494 -400 723 -169 232 234 128 633 -190 726
-76 22 -180 19 -257 -7z m205 -207 c80 -22 146 -109 149 -196 2 -56 -6 -85
-38 -133 -70 -104 -227 -125 -319 -43 -65 57 -92 157 -65 237 36 110 154 168
273 135z"/>
<path d="M6131 1415 c-4 -5 -7 -126 -7 -268 1 -142 -1 -261 -4 -265 -3 -4 -77
-7 -164 -7 l-159 0 -1 -108 c-1 -59 1 -108 4 -108 3 -1 125 -2 272 -3 259 -1
267 -1 270 19 2 11 3 182 3 380 l-1 360 -103 5 c-63 3 -106 1 -110 -5z"/>
<path d="M5360 765 l0 -110 110 0 109 0 -2 110 -2 110 -107 0 -108 0 0 -110z"/>
</g>
</svg>
